<?xml version="1.0" encoding="UTF-8" standalone="no"?>
<!-- Created with Inkscape (http://www.inkscape.org/) -->

<svg
   xmlns:dc="http://purl.org/dc/elements/1.1/"
   xmlns:cc="http://creativecommons.org/ns#"
   xmlns:rdf="http://www.w3.org/1999/02/22-rdf-syntax-ns#"
   xmlns:svg="http://www.w3.org/2000/svg"
   xmlns="http://www.w3.org/2000/svg"
   xmlns:sodipodi="http://sodipodi.sourceforge.net/DTD/sodipodi-0.dtd"
   xmlns:inkscape="http://www.inkscape.org/namespaces/inkscape"
   width="100mm"
   height="100mm"
   viewBox="0 0 100 100"
   version="1.1"
   id="svg3737"
   inkscape:version="0.92.2 (5c3e80d, 2017-08-06)"
   sodipodi:docname="logo_tiny.svg"
   inkscape:export-filename="C:\Users\remi\Desktop\logo_32x32.png"
   inkscape:export-xdpi="8.1280003"
   inkscape:export-ydpi="8.1280003">
  <defs
     id="defs3731" />
  <sodipodi:namedview
     id="base"
     pagecolor="#ffffff"
     bordercolor="#666666"
     borderopacity="1.0"
     inkscape:pageopacity="0.0"
     inkscape:pageshadow="2"
     inkscape:zoom="0.35"
     inkscape:cx="-163.79523"
     inkscape:cy="453.5615"
     inkscape:document-units="mm"
     inkscape:current-layer="layer2"
     showgrid="false"
     inkscape:window-width="1366"
     inkscape:window-height="705"
     inkscape:window-x="-8"
     inkscape:window-y="-8"
     inkscape:window-maximized="1" />
  <metadata
     id="metadata3734">
    <rdf:RDF>
      <cc:Work
         rdf:about="">
        <dc:format>image/svg+xml</dc:format>
        <dc:type
           rdf:resource="http://purl.org/dc/dcmitype/StillImage" />
        <dc:title></dc:title>
      </cc:Work>
    </rdf:RDF>
  </metadata>
  <g
     inkscape:groupmode="layer"
     id="layer2"
     inkscape:label="logo">
    <g
       id="g4897"
       inkscape:label="character"
       transform="matrix(1.6423922,0,0,1.6423922,-29.668497,-4.9625201)"
       style="fill:#000000">
      <path
         style="fill:#000000;stroke:#000000;stroke-width:12.4149332;stroke-linecap:round;stroke-linejoin:round;stroke-miterlimit:4;stroke-dasharray:none;stroke-opacity:1"
         d="M 255.51562,34.792969 C 241.43338,34.897055 226.2609,38.542326 211.38477,41.226562 172.49718,27.724184 156.462,50.180917 138.38672,69.429688 122.35503,70.527546 125.01032,45.92958 77,90.998047 19.152973,109.718 14.663008,160.14426 28.888672,200.49609 c -22.0154694,20.3527 -11.22196,31.33232 -3.31836,43.13672 -27.5188969,60.19601 31.552278,71.45741 56.408204,56.40821 72.534084,13.67717 145.788624,16.75677 222.314454,-14.93164 21.96837,9.59658 92.9536,-21.80021 28.20312,-63.04493 32.00389,-21.44194 47.62367,-43.84857 4.97852,-69.68164 C 361.00647,113.12238 357.52855,83.842848 305.95117,71.089844 294.35048,42.053532 276.09737,34.640843 255.51562,34.792969 Z M 244.07617,178.69922 c 0.34753,-0.006 0.69496,-0.003 1.04297,0.01 20.881,0.7898 42.58336,36.26527 34.28906,54.96875 -8.84724,19.95037 -45.95924,20.78857 -59.14258,4.97657 -13.18333,-15.81202 -1.31317,-55.28853 20.69727,-59.62305 1.03174,-0.20314 2.0707,-0.31271 3.11328,-0.33203 z m -94.07812,0.22851 c 21.57671,-0.56803 37.79208,31.08198 33.18164,52.26172 -4.61044,21.17977 -42.88981,28.70402 -61.38477,7.46485 -18.49498,-21.23919 6.62641,-59.1585 28.20313,-59.72657 z"
         transform="matrix(0.16109632,0,0,0.16109632,18.064197,3.0215195)"
         id="path4854"
         inkscape:connector-curvature="0" />
    </g>
  </g>
</svg>
